<?xml version="1.0" standalone="no"?>
<!DOCTYPE svg PUBLIC "-//W3C//DTD SVG 20010904//EN"
 "http://www.w3.org/TR/2001/REC-SVG-20010904/DTD/svg10.dtd">
<svg version="1.0" xmlns="http://www.w3.org/2000/svg"
 width="724.000000pt" height="724.000000pt" viewBox="0 0 724.000000 724.000000"
 preserveAspectRatio="xMidYMid meet">
<metadata>
Created by potrace 1.11, written by Peter Selinger 2001-2013
</metadata>
<g transform="translate(0.000000,724.000000) scale(0.100000,-0.100000)"
fill="#000000" stroke="none">
<path d="M4563 4525 c-18 -8 -63 -35 -100 -61 -184 -129 -219 -160 -308 -284
-21 -30 -42 -57 -45 -60 -3 -3 -11 -17 -19 -32 -8 -15 -21 -36 -30 -45 -9 -10
-22 -30 -30 -45 -8 -16 -18 -28 -23 -28 -4 0 -8 -6 -8 -14 0 -7 -7 -19 -15
-26 -13 -11 -15 1 -15 96 0 112 -7 144 -49 223 -29 56 -123 151 -150 151 -11
0 -26 9 -33 19 -26 38 -137 68 -256 71 -245 7 -408 6 -427 -1 -25 -8 -99 -80
-116 -111 -7 -13 -13 -50 -14 -83 -2 -44 -13 -87 -42 -160 -23 -55 -60 -161
-83 -235 -53 -172 -53 -171 -90 -260 -17 -41 -33 -82 -35 -90 -17 -76 -48
-167 -64 -184 -11 -12 -22 -41 -25 -66 -2 -25 -12 -69 -21 -99 -9 -30 -18 -62
-20 -70 -2 -9 -21 -72 -43 -141 -59 -186 -62 -199 -63 -306 -1 -200 -1 -199
27 -228 26 -26 28 -26 173 -26 80 0 151 4 157 8 12 7 67 172 58 172 -3 0 0 9
6 21 6 11 13 28 15 37 2 9 32 100 67 202 72 211 67 206 189 216 73 6 273 64
316 92 12 7 23 13 25 12 2 -1 20 5 41 14 51 21 109 66 183 143 56 57 86 80 69
52 -16 -26 -27 -195 -27 -409 0 -227 5 -281 34 -372 26 -85 72 -139 152 -180
l61 -32 185 0 c165 0 193 2 255 22 104 34 289 136 401 223 76 58 90 73 104
107 10 24 16 289 7 298 -3 3 -64 5 -135 5 -126 -1 -223 -18 -237 -41 -20 -32
-233 -145 -346 -183 -18 -6 -42 43 -55 113 -12 63 5 188 33 243 7 15 12 27 9
27 -11 0 38 145 82 240 17 37 89 157 107 177 5 6 26 35 45 63 19 28 47 65 62
83 15 18 28 35 28 40 0 4 4 7 8 7 4 0 7 -35 6 -77 -1 -88 11 -121 55 -152 26
-19 43 -21 172 -21 l143 0 53 56 c29 31 53 62 53 69 0 7 3 15 8 17 7 3 44 74
47 93 2 6 9 30 18 55 8 25 18 72 22 105 10 93 8 347 -4 392 -22 81 -83 142
-163 163 -56 16 -346 11 -385 -5z m302 -132 c51 -23 82 -56 108 -113 23 -50
29 -150 14 -215 -5 -22 -10 -49 -13 -60 -6 -31 -56 -148 -71 -166 -7 -8 -13
-20 -13 -25 0 -15 -88 -102 -110 -109 -28 -9 -85 28 -100 64 -10 26 -9 32 10
53 30 32 119 215 125 258 3 19 8 49 12 65 12 59 10 86 -7 107 -17 21 -18 21
-62 5 -109 -42 -247 -171 -392 -367 -38 -52 -74 -96 -78 -98 -4 -2 -8 -8 -8
-13 0 -11 -42 -72 -52 -77 -5 -2 -8 -8 -8 -14 0 -5 -8 -22 -18 -36 -39 -57
-109 -239 -126 -327 -1 -5 -4 -14 -8 -20 -6 -11 -23 -92 -34 -165 -11 -75 -5
-258 11 -329 18 -75 50 -129 82 -137 28 -7 107 2 153 17 19 6 89 34 155 62
111 47 159 74 256 142 20 14 46 27 58 30 12 2 31 7 42 10 43 14 32 -47 -18
-101 -76 -82 -343 -243 -479 -287 -49 -16 -190 -22 -198 -9 -3 6 -18 13 -33
17 -40 10 -110 64 -133 101 -49 85 -64 159 -64 339 -1 226 13 307 86 490 36
92 126 283 138 295 8 8 123 182 136 207 7 12 17 28 23 35 6 7 30 38 54 68 23
30 59 71 79 92 48 49 249 195 300 218 48 21 126 18 183 -7z m-1367 -38 c18 -4
35 -12 38 -16 3 -5 14 -9 25 -9 10 0 28 -9 40 -21 11 -11 36 -27 54 -35 91
-38 197 -209 190 -309 -6 -96 -17 -152 -35 -175 -11 -14 -31 -48 -45 -75 -13
-28 -33 -60 -45 -72 -11 -12 -20 -26 -20 -30 0 -4 -9 -16 -19 -28 -11 -11 -53
-55 -93 -98 -40 -44 -93 -94 -118 -112 -82 -60 -329 -152 -434 -161 -28 -3
-72 -10 -98 -15 -45 -10 -47 -13 -72 -72 -14 -34 -27 -71 -29 -82 -1 -11 -5
-24 -8 -30 -4 -5 -14 -35 -24 -65 -10 -30 -22 -61 -28 -67 -5 -7 -7 -13 -4
-13 4 0 -1 -19 -9 -42 -9 -24 -17 -50 -19 -58 -2 -8 -10 -35 -18 -60 -8 -25
-20 -66 -27 -93 -7 -26 -18 -51 -24 -55 -28 -17 -58 -12 -86 16 -25 25 -28 35
-25 75 3 25 11 62 19 81 8 20 13 36 11 36 -2 0 5 26 16 58 28 80 90 292 95
322 2 14 5 35 7 47 2 12 11 31 21 41 9 11 30 64 46 118 26 90 44 140 81 229 7
17 13 35 14 40 2 6 10 35 20 65 51 163 79 249 95 285 56 128 80 206 70 225
-18 34 -11 50 50 110 l59 60 148 -4 c81 -2 163 -7 181 -11z"/>
<path d="M3281 4189 c-24 -14 -44 -46 -85 -131 -82 -172 -87 -186 -146 -378
-18 -58 -37 -111 -43 -117 -5 -7 -7 -13 -4 -13 3 0 -7 -28 -23 -62 -27 -60
-34 -89 -31 -132 1 -17 7 -18 64 -12 34 3 91 14 127 25 62 18 191 75 217 96 7
6 39 30 70 54 96 73 157 159 221 308 21 50 34 106 35 148 0 33 -15 85 -24 85
-5 0 -9 6 -9 13 0 21 -82 95 -129 116 -61 27 -196 27 -240 0z m187 -169 c65
-59 65 -62 14 -162 -35 -70 -62 -107 -122 -166 -42 -43 -100 -89 -129 -105
l-51 -27 4 23 c15 84 144 400 189 464 15 21 55 10 95 -27z"/>
</g>
</svg>
