<svg width="180.90380859375px" height="130.41494140625px" xmlns="http://www.w3.org/2000/svg" viewBox="193.048095703125 9.792529296875003 113.90380859375 130.41494140625" style="background: rgba(23, 21, 21, 0);" preserveAspectRatio="xMidYMid"><defs><linearGradient id="editing-outline-gradient" x1="-0.5" x2="1.5" y1="0.5" y2="0.5"><stop offset="0" stop-color="#000000"></stop><stop offset="1" stop-color="#000000"></stop></linearGradient><filter id="editing-outline" x="-100%" y="-100%" width="300%" height="300%"><feMorphology in="SourceGraphic" operator="dilate" radius="3" result="outline"></feMorphology><feComposite operator="out" in="outline" in2="SourceAlpha"></feComposite></filter></defs><g filter="url(#editing-outline)"><g transform="translate(217.80218696594238, 98.61499977111816)"><path d="M7.55 3.07L7.55 3.07Q7.23 3.07 6.88 2.85L6.88 2.85L6.88 2.85Q6.53 2.62 6.27 2.24L6.27 2.24L6.27 2.24Q5.76 1.86 5.76 1.09L5.76 1.09L5.76 1.09Q5.76-0.38 7.94-6.66L7.94-6.66L7.94-6.66Q8.38-8.45 8.90-10.11L8.90-10.11L8.90-10.11Q9.34-11.26 9.34-11.84L9.34-11.84L9.34-11.84Q9.34-12.35 9.50-13.02L9.50-13.02L9.50-13.02Q9.66-13.70 9.66-13.95L9.66-13.95L9.66-13.95Q10.43-13.95 11.07-16.58L11.07-16.58L11.07-16.58Q11.33-17.54 11.52-18.21L11.52-18.21L11.52-18.21Q11.71-18.88 11.78-19.26L11.78-19.26L11.78-19.26Q11.90-19.46 12.06-19.84L12.06-19.84L12.06-19.84Q12.22-20.22 12.35-20.54L12.35-20.54L12.35-20.54Q12.86-22.08 13.57-23.49L13.57-23.49L13.57-23.49Q14.34-26.37 15.39-29.54L15.39-29.54L15.39-29.54Q16.45-32.70 17.15-34.24L17.15-34.24L17.92-36.16L17.92-36.16Q17.98-36.35 18.21-36.90L18.21-36.90L18.21-36.90Q18.43-37.44 18.43-37.70L18.43-37.70L18.43-37.70Q18.43-37.95 18.24-38.08L18.24-38.08L18.24-38.08Q17.92-38.27 17.92-38.72L17.92-38.72L17.92-38.72Q17.92-39.55 19.46-40.90L19.46-40.90L19.46-40.90Q20.22-41.86 20.77-42.14L20.77-42.14L20.77-42.14Q21.31-42.43 22.27-42.43L22.27-42.43L24.32-42.30L24.32-42.30Q25.09-42.24 28.42-42.24L28.42-42.24L28.42-42.24Q29.12-41.92 30.08-41.60L30.08-41.60L30.08-41.60Q32-40.96 32-40.70L32-40.70L32-40.70Q32-40.38 32.22-40.26L32.22-40.26L32.22-40.26Q32.45-40.13 32.90-40.06L32.90-40.06L32.90-40.06Q33.54-40.06 34.91-38.62L34.91-38.62L34.91-38.62Q36.29-37.18 36.99-35.65L36.99-35.65L36.99-35.65Q37.44-34.62 37.66-33.95L37.66-33.95L37.66-33.95Q37.89-33.28 37.89-32.38L37.89-32.38L37.89-32.38Q37.89-31.42 37.76-30.85L37.76-30.85L37.76-30.85Q37.63-29.82 37.44-28.86L37.44-28.86L37.44-28.86Q37.25-27.90 36.99-27.65L36.99-27.65L36.99-27.65Q35.97-26.88 35.97-26.30L35.97-26.30L35.97-26.30Q35.97-25.79 34.34-23.62L34.34-23.62L34.34-23.62Q32.70-21.44 31.23-20.03L31.23-20.03L31.23-20.03Q29.57-18.11 27.26-16.64L27.26-16.64L27.26-16.64Q19.71-13.25 16.70-13.38L16.70-13.38L16.70-13.38Q14.66-13.06 14.21-12.83L14.21-12.83L14.21-12.83Q13.76-12.61 13.50-11.78L13.50-11.78L13.50-11.78Q13.18-10.94 12.90-10.05L12.90-10.05L12.90-10.05Q12.61-9.15 12.61-8.90L12.61-8.90L12.61-8.90Q12.22-8.19 10.91-4.16L10.91-4.16L10.91-4.16Q9.60-0.13 9.15 1.86L9.15 1.86L9.15 1.86Q8.90 2.69 8.58 2.88L8.58 2.88L8.58 2.88Q8.26 3.07 7.55 3.07L7.55 3.07ZM15.49-16.77L15.49-16.77Q15.62-16.64 16.32-16.64L16.32-16.64L16.32-16.64Q17.15-16.64 18.53-16.90L18.53-16.90L18.53-16.90Q19.90-17.15 21.18-17.66L21.18-17.66L21.18-17.66Q23.49-18.43 26.30-20.16L26.30-20.16L26.30-20.16Q27.14-20.74 28.38-21.89L28.38-21.89L28.38-21.89Q29.63-23.04 30.78-24.51L30.78-24.51L30.78-24.51Q31.17-25.15 32.32-27.52L32.32-27.52L32.32-27.52Q32.83-28.42 33.31-29.82L33.31-29.82L33.31-29.82Q33.79-31.23 33.79-32.32L33.79-32.32L33.79-32.32Q33.79-32.83 33.73-33.09L33.73-33.09L33.73-33.09Q33.41-34.75 32.03-36.19L32.03-36.19L32.03-36.19Q30.66-37.63 28.86-38.14L28.86-38.14L28.86-38.14Q27.52-38.40 26.43-38.40L26.43-38.40L26.43-38.40Q25.54-38.40 24.51-38.21L24.51-38.21L24.51-38.21Q23.49-37.89 23.01-37.31L23.01-37.31L23.01-37.31Q22.53-36.74 21.76-34.88L21.76-34.88L21.76-34.88Q20.29-32.06 19.07-28.74L19.07-28.74L19.07-28.74Q17.92-24.45 16.77-21.63L16.77-21.63L16.77-21.63Q15.62-18.82 15.42-18.37L15.42-18.37L15.42-18.11L15.42-18.11Q15.42-17.73 15.36-17.34L15.36-17.34L15.36-17.34Q15.30-16.96 15.49-16.77L15.49-16.77ZM44.54 3.58L44.54 3.58Q42.56 2.88 41.31 1.98L41.31 1.98L41.31 1.98Q40.06 1.09 39.23-0.96L39.23-0.96L39.23-0.96Q38.21-3.84 38.21-7.74L38.21-7.74L38.21-7.74Q38.21-11.52 38.66-14.18L38.66-14.18L38.66-14.18Q39.10-16.83 40.19-19.58L40.19-19.58L40.77-20.93L40.77-20.93Q41.79-23.55 42.24-24.38L42.24-24.38L42.24-24.38Q43.33-26.88 46.08-30.85L46.08-30.85L46.08-30.85Q48.51-34.56 49.92-36.26L49.92-36.26L49.92-36.26Q51.33-37.95 52.64-38.98L52.64-38.98L52.64-38.98Q53.95-40 57.47-42.43L57.47-42.43L57.47-42.43Q58.94-43.52 60.86-43.52L60.86-43.52L60.86-43.52Q62.46-43.52 63.84-42.72L63.84-42.72L63.84-42.72Q65.22-41.92 65.92-40.45L65.92-40.45L65.92-40.45Q66.62-39.23 66.62-37.18L66.62-37.18L66.62-37.18Q66.62-34.30 65.34-31.17L65.34-31.17L65.34-31.17Q64.06-28.03 62.08-26.24L62.08-26.24L62.08-26.24Q61.44-25.66 60.86-25.66L60.86-25.66L60.86-25.66Q60.16-25.66 59.01-26.69L59.01-26.69L59.01-26.69Q58.43-27.78 58.37-27.97L58.37-27.97L58.37-27.97Q58.30-28.16 58.62-28.22L58.62-28.22L58.62-28.22Q59.20-28.93 60.32-30.94L60.32-30.94L60.32-30.94Q61.44-32.96 61.82-34.11L61.82-34.11L61.82-34.11Q61.95-34.50 62.08-35.39L62.08-35.39L62.08-35.39Q62.59-37.63 62.59-38.40L62.59-38.40L62.59-38.40Q62.59-39.17 62.14-39.62L62.14-39.62L62.14-39.62Q61.95-39.81 61.63-39.81L61.63-39.81L61.63-39.81Q61.12-39.81 59.84-39.17L59.84-39.17L59.84-39.17Q58.30-38.53 55.94-36.29L55.94-36.29L55.94-36.29Q53.57-34.05 51.65-31.42L51.65-31.42L51.65-31.42Q48.70-27.58 47.14-25.09L47.14-25.09L47.14-25.09Q45.57-22.59 44.74-20.03L44.74-20.03L44.03-18.37L44.03-18.37Q44.10-18.11 43.84-17.09L43.84-17.09L43.84-17.09Q43.58-16.06 43.26-15.42L43.26-15.42L43.26-15.42Q42.37-11.71 42.37-8.06L42.37-8.06L42.37-8.06Q42.37-5.31 42.85-3.20L42.85-3.20L42.85-3.20Q43.33-1.09 44.22-0.32L44.22-0.32L44.22-0.32Q44.74 0.13 45.76 0.13L45.76 0.13L45.76 0.13Q47.04 0.13 48.93-0.51L48.93-0.51L48.93-0.51Q50.82-1.15 53.57-2.37L53.57-2.37L53.57-2.37Q55.04-2.94 56.35-3.71L56.35-3.71L56.35-3.71Q57.66-4.48 58.30-5.12L58.30-5.12L58.30-5.12Q59.97-6.34 60.99-6.34L60.99-6.34L60.99-6.34Q61.70-6.59 61.95-6.59L61.95-6.59L61.95-6.59Q62.08-6.59 62.11-6.43L62.11-6.43L62.11-6.43Q62.14-6.27 62.14-6.02L62.14-6.02L62.14-6.02Q62.14-5.12 61.18-4.06L61.18-4.06L61.18-4.06Q60.22-3.01 58.62-2.05L58.62-2.05L58.62-2.05Q57.34-0.77 55.55-0.06L55.55-0.06L55.55-0.06Q53.50 1.41 50.78 2.56L50.78 2.56L50.78 2.56Q48.06 3.71 45.82 3.71L45.82 3.71L45.82 3.71Q45.31 3.71 44.54 3.58L44.54 3.58Z" fill="url(#editing-outline-gradient)"></path></g></g><style>text {
  font-size: 64px;
  font-family: Arial Black;
  dominant-baseline: central;
  text-anchor: middle;
}</style></svg>