<svg xmlns="http://www.w3.org/2000/svg" viewBox="210.95123291015625 33.188757324218756 78.0975341796875 83.62248535156249" style="background: none;" preserveAspectRatio="xMidYMid"><defs><filter id="editing-vr"><feFlood flood-color="none" flood-opacity="0.7" result="c1"></feFlood><feFlood flood-color="none" flood-opacity="0.7" result="c3"></feFlood><feComposite operator="in" in="c1" in2="SourceAlpha" result="text-c1"></feComposite><feComposite operator="in" in="c3" in2="SourceAlpha" result="text-c3"></feComposite><feOffset in="text-c1" dx="1" dy="-1" result="text1"></feOffset><feOffset in="text-c3" dx="-1" dy="1" result="text3"></feOffset><feBlend in="SourceGraphic" in2="text1" mode="multiply" result="text4"></feBlend><feBlend in="text4" in2="text3" mode="multiply"></feBlend></filter></defs><g filter="url(#editing-vr)"><g transform="translate(229.64875149726868, 87.29499912261963)"><path d="M12.67-8.92L12.67-8.92L12.67-8.92Q12.35-8.22 11.97-7.24L11.97-7.24L11.97-7.24Q11.59-6.26 11.14-5.20L11.14-5.20L11.14-5.20Q10.69-4.13 10.19-3.09L10.19-3.09L10.19-3.09Q9.68-2.04 9.12-1.22L9.12-1.22L9.12-1.22Q8.57-0.40 7.98 0.12L7.98 0.12L7.98 0.12Q7.39 0.63 6.77 0.63L6.77 0.63L6.77 0.63Q6.26 0.63 5.93 0.47L5.93 0.47L5.93 0.47Q5.59 0.32 5.41 0.07L5.41 0.07L5.41 0.07Q5.23-0.17 5.15-0.46L5.15-0.46L5.15-0.46Q5.08-0.75 5.08-1.01L5.08-1.01L5.08-1.01Q5.08-1.41 5.20-1.83L5.20-1.83L5.20-1.83Q5.33-2.24 5.51-2.59L5.51-2.59L11.87-14.29L11.87-14.29Q12.29-15.02 12.66-15.44L12.66-15.44L12.66-15.44Q13.03-15.85 13.36-16.05L13.36-16.05L13.36-16.05Q13.68-16.25 13.93-16.29L13.93-16.29L13.93-16.29Q14.18-16.34 14.34-16.34L14.34-16.34L14.34-16.34Q14.64-16.34 14.89-16.13L14.89-16.13L14.89-16.13Q15.14-15.92 15.14-15.37L15.14-15.37L15.14-15.37Q15.14-14.84 14.86-13.91L14.86-13.91L14.86-13.91Q14.58-12.98 13.81-11.52L13.81-11.52L13.81-11.52Q15.11-11.62 16.37-11.96L16.37-11.96L16.37-11.96Q17.63-12.30 18.64-12.90L18.64-12.90L18.64-12.90Q19.64-13.50 20.25-14.35L20.25-14.35L20.25-14.35Q20.87-15.21 20.87-16.34L20.87-16.34L20.87-16.34Q20.87-17.33 20.54-18.24L20.54-18.24L20.54-18.24Q20.22-19.14 19.60-19.83L19.60-19.83L19.60-19.83Q18.98-20.52 18.06-20.93L18.06-20.93L18.06-20.93Q17.15-21.33 15.95-21.33L15.95-21.33L15.95-21.33Q14.33-21.33 13.16-21.03L13.16-21.03L13.16-21.03Q11.99-20.72 11.15-20.22L11.15-20.22L11.15-20.22Q10.31-19.72 9.75-19.08L9.75-19.08L9.75-19.08Q9.18-18.43 8.77-17.76L8.77-17.76L8.77-17.76Q8.37-17.10 8.05-16.45L8.05-16.45L8.05-16.45Q7.74-15.80 7.40-15.31L7.40-15.31L7.40-15.31Q7.06-14.81 6.62-14.50L6.62-14.50L6.62-14.50Q6.19-14.19 5.56-14.19L5.56-14.19L5.56-14.19Q4.75-14.19 4.36-14.61L4.36-14.61L4.36-14.61Q3.97-15.02 3.97-15.79L3.97-15.79L3.97-15.79Q3.97-16.55 4.38-17.46L4.38-17.46L4.38-17.46Q4.80-18.36 5.56-19.27L5.56-19.27L5.56-19.27Q6.33-20.19 7.41-21.03L7.41-21.03L7.41-21.03Q8.50-21.86 9.86-22.51L9.86-22.51L9.86-22.51Q11.22-23.16 12.82-23.55L12.82-23.55L12.82-23.55Q14.43-23.94 16.20-23.94L16.20-23.94L16.20-23.94Q17.86-23.94 19.40-23.47L19.40-23.47L19.40-23.47Q20.93-22.99 22.11-22.05L22.11-22.05L22.11-22.05Q23.29-21.10 24.00-19.68L24.00-19.68L24.00-19.68Q24.70-18.26 24.70-16.35L24.70-16.35L24.70-16.35Q24.70-14.61 23.86-13.21L23.86-13.21L23.86-13.21Q23.03-11.80 21.61-10.83L21.61-10.83L21.61-10.83Q20.19-9.86 18.33-9.34L18.33-9.34L18.33-9.34Q16.47-8.82 14.41-8.82L14.41-8.82L14.41-8.82Q13.98-8.82 13.54-8.83L13.54-8.83L13.54-8.83Q13.10-8.85 12.67-8.92ZM42.42-20.97L42.42-20.97L42.42-20.97Q42.42-20.52 42.28-19.89L42.28-19.89L42.28-19.89Q42.13-19.26 41.87-18.58L41.87-18.58L41.87-18.58Q41.60-17.90 41.23-17.22L41.23-17.22L41.23-17.22Q40.86-16.55 40.38-16.01L40.38-16.01L40.38-16.01Q39.89-15.47 39.33-15.14L39.33-15.14L39.33-15.14Q38.76-14.81 38.12-14.81L38.12-14.81L38.12-14.81Q37.97-14.81 37.73-14.83L37.73-14.83L37.73-14.83Q37.49-14.86 37.25-14.95L37.25-14.95L37.25-14.95Q37.00-15.04 36.83-15.22L36.83-15.22L36.83-15.22Q36.66-15.41 36.66-15.71L36.66-15.71L36.66-15.71Q36.66-15.90 36.76-16.17L36.76-16.17L36.76-16.17Q36.87-16.44 37.15-16.78L37.15-16.78L37.15-16.78Q37.45-17.12 37.80-17.57L37.80-17.57L37.80-17.57Q38.15-18.03 38.43-18.53L38.43-18.53L38.43-18.53Q38.71-19.03 38.91-19.51L38.91-19.51L38.91-19.51Q39.10-19.99 39.10-20.37L39.10-20.37L39.10-20.37Q39.10-20.85 38.87-21.14L38.87-21.14L38.87-21.14Q38.65-21.43 38.10-21.43L38.10-21.43L38.10-21.43Q37.39-21.43 36.49-20.97L36.49-20.97L36.49-20.97Q35.59-20.50 34.61-19.69L34.61-19.69L34.61-19.69Q33.63-18.88 32.62-17.79L32.62-17.79L32.62-17.79Q31.61-16.70 30.66-15.46L30.66-15.46L30.66-15.46Q29.72-14.23 28.88-12.89L28.88-12.89L28.88-12.89Q28.04-11.55 27.42-10.25L27.42-10.25L27.42-10.25Q26.79-8.95 26.44-7.74L26.44-7.74L26.44-7.74Q26.08-6.54 26.08-5.56L26.08-5.56L26.08-5.56Q26.08-4.35 26.73-3.62L26.73-3.62L26.73-3.62Q27.38-2.89 28.87-2.89L28.87-2.89L28.87-2.89Q29.57-2.89 30.95-3.43L30.95-3.43L30.95-3.43Q32.32-3.97 33.24-4.51L33.24-4.51L33.24-4.51Q34.17-5.05 35.10-5.70L35.10-5.70L35.10-5.70Q36.04-6.36 36.89-6.96L36.89-6.96L36.89-6.96Q37.74-7.57 38.43-8.06L38.43-8.06L38.43-8.06Q39.13-8.55 39.58-8.75L39.58-8.75L39.58-8.75Q39.66-8.82 39.78-8.82L39.78-8.82L39.78-8.82Q40.03-8.82 40.12-8.41L40.12-8.41L40.12-8.41Q40.21-8.00 40.21-7.49L40.21-7.49L40.21-7.49Q40.21-7.21 40.13-6.80L40.13-6.80L40.13-6.80Q40.06-6.39 39.66-5.86L39.66-5.86L39.66-5.86Q39.48-5.64 38.98-5.13L38.98-5.13L38.98-5.13Q38.48-4.62 37.74-3.97L37.74-3.97L37.74-3.97Q36.99-3.32 36.03-2.62L36.03-2.62L36.03-2.62Q35.06-1.93 33.94-1.34L33.94-1.34L33.94-1.34Q32.82-0.76 31.05-0.20L31.05-0.20L31.05-0.20Q29.29 0.37 27.97 0.37L27.97 0.37L27.97 0.37Q26.43 0.37 25.33-0.01L25.33-0.01L25.33-0.01Q24.24-0.38 23.54-1.05L23.54-1.05L23.54-1.05Q22.84-1.71 22.52-2.63L22.52-2.63L22.52-2.63Q22.20-3.55 22.20-4.65L22.20-4.65L22.20-4.65Q22.20-6.01 22.61-7.57L22.61-7.57L22.61-7.57Q23.03-9.13 23.77-10.74L23.77-10.74L23.77-10.74Q24.50-12.35 25.52-13.96L25.52-13.96L25.52-13.96Q26.55-15.57 27.77-17.04L27.77-17.04L27.77-17.04Q28.99-18.51 30.36-19.77L30.36-19.77L30.36-19.77Q31.74-21.03 33.19-21.96L33.19-21.96L33.19-21.96Q34.63-22.89 36.09-23.42L36.09-23.42L36.09-23.42Q37.55-23.96 38.96-23.96L38.96-23.96L38.96-23.96Q39.66-23.96 40.29-23.80L40.29-23.80L40.29-23.80Q40.92-23.64 41.40-23.29L41.40-23.29L41.40-23.29Q41.87-22.94 42.14-22.37L42.14-22.37L42.14-22.37Q42.42-21.80 42.42-20.97Z" fill="#a5a6a0"></path></g></g><style>text {
  font-size: 64px;
  font-family: Arial Black;
  dominant-baseline: central;
  text-anchor: middle;
}</style></svg>